<mxfile host="app.diagrams.net" modified="2022-09-19T00:20:38.801Z" agent="5.0 (Windows NT 10.0; Win64; x64) AppleWebKit/537.36 (KHTML, like Gecko) Chrome/105.0.0.0 Safari/537.36" etag="8d4Gw_sr-82hR58FyOk_" version="20.3.2" type="github">
  <diagram id="gYZb8uf8AsMIv592jEMw" name="PÃ¡gina-1">
    <mxGraphModel dx="1385" dy="635" grid="1" gridSize="10" guides="1" tooltips="1" connect="1" arrows="1" fold="1" page="1" pageScale="1" pageWidth="827" pageHeight="1169" math="0" shadow="0">
      <root>
        <mxCell id="0" />
        <mxCell id="1" parent="0" />
        <mxCell id="d2nJjbXIPYSySB3inElV-1" value="" style="swimlane;startSize=0;" vertex="1" parent="1">
          <mxGeometry x="180" y="165" width="440" height="420" as="geometry" />
        </mxCell>
        <mxCell id="d2nJjbXIPYSySB3inElV-3" value="Subir fotos" style="ellipse;whiteSpace=wrap;html=1;" vertex="1" parent="d2nJjbXIPYSySB3inElV-1">
          <mxGeometry x="80" y="70" width="120" height="80" as="geometry" />
        </mxCell>
        <mxCell id="d2nJjbXIPYSySB3inElV-4" value="Pagar con tarjeta" style="ellipse;whiteSpace=wrap;html=1;" vertex="1" parent="d2nJjbXIPYSySB3inElV-1">
          <mxGeometry x="210" y="170" width="120" height="80" as="geometry" />
        </mxCell>
        <mxCell id="d2nJjbXIPYSySB3inElV-5" value="Retirar fotos" style="ellipse;whiteSpace=wrap;html=1;" vertex="1" parent="d2nJjbXIPYSySB3inElV-1">
          <mxGeometry x="60" y="255" width="120" height="80" as="geometry" />
        </mxCell>
        <mxCell id="d2nJjbXIPYSySB3inElV-10" value="" style="endArrow=classic;html=1;rounded=0;exitX=0;exitY=0.5;exitDx=0;exitDy=0;entryX=0.736;entryY=0.938;entryDx=0;entryDy=0;entryPerimeter=0;" edge="1" parent="d2nJjbXIPYSySB3inElV-1" source="d2nJjbXIPYSySB3inElV-4" target="d2nJjbXIPYSySB3inElV-3">
          <mxGeometry relative="1" as="geometry">
            <mxPoint x="180" y="225" as="sourcePoint" />
            <mxPoint x="280" y="225" as="targetPoint" />
          </mxGeometry>
        </mxCell>
        <mxCell id="d2nJjbXIPYSySB3inElV-11" value="&amp;lt;extends&amp;gt;" style="edgeLabel;resizable=0;html=1;align=center;verticalAlign=middle;" connectable="0" vertex="1" parent="d2nJjbXIPYSySB3inElV-10">
          <mxGeometry relative="1" as="geometry" />
        </mxCell>
        <mxCell id="d2nJjbXIPYSySB3inElV-2" value="Clente&amp;nbsp;" style="shape=umlActor;verticalLabelPosition=bottom;verticalAlign=top;html=1;outlineConnect=0;" vertex="1" parent="1">
          <mxGeometry x="30" y="210" width="90" height="190" as="geometry" />
        </mxCell>
        <mxCell id="d2nJjbXIPYSySB3inElV-6" value="Empleado" style="shape=umlActor;verticalLabelPosition=bottom;verticalAlign=top;html=1;outlineConnect=0;" vertex="1" parent="1">
          <mxGeometry x="40" y="530" width="90" height="190" as="geometry" />
        </mxCell>
        <mxCell id="d2nJjbXIPYSySB3inElV-7" value="Servidor bancario" style="shape=umlActor;verticalLabelPosition=bottom;verticalAlign=top;html=1;outlineConnect=0;" vertex="1" parent="1">
          <mxGeometry x="720" y="140" width="90" height="190" as="geometry" />
        </mxCell>
        <mxCell id="d2nJjbXIPYSySB3inElV-8" value="" style="endArrow=none;html=1;rounded=0;exitX=0.917;exitY=0.188;exitDx=0;exitDy=0;exitPerimeter=0;" edge="1" parent="1" source="d2nJjbXIPYSySB3inElV-4" target="d2nJjbXIPYSySB3inElV-7">
          <mxGeometry width="50" height="50" relative="1" as="geometry">
            <mxPoint x="390" y="420" as="sourcePoint" />
            <mxPoint x="440" y="370" as="targetPoint" />
          </mxGeometry>
        </mxCell>
        <mxCell id="d2nJjbXIPYSySB3inElV-13" value="" style="endArrow=classic;html=1;rounded=0;" edge="1" parent="1" source="d2nJjbXIPYSySB3inElV-2" target="d2nJjbXIPYSySB3inElV-3">
          <mxGeometry width="50" height="50" relative="1" as="geometry">
            <mxPoint x="430" y="430" as="sourcePoint" />
            <mxPoint x="480" y="380" as="targetPoint" />
          </mxGeometry>
        </mxCell>
        <mxCell id="d2nJjbXIPYSySB3inElV-14" value="" style="endArrow=classic;html=1;rounded=0;" edge="1" parent="1" source="d2nJjbXIPYSySB3inElV-6" target="d2nJjbXIPYSySB3inElV-5">
          <mxGeometry width="50" height="50" relative="1" as="geometry">
            <mxPoint x="130" y="309.48979591836735" as="sourcePoint" />
            <mxPoint x="270.987170026076" y="292.2260608131335" as="targetPoint" />
          </mxGeometry>
        </mxCell>
      </root>
    </mxGraphModel>
  </diagram>
</mxfile>
